<svg width="20" height="20" viewBox="0 0 20 20" fill="none" xmlns="http://www.w3.org/2000/svg">
<g clip-path="url(#clip0_2196_14420)">
<path d="M0.248436 16.7691L0.283983 16.7211C1.0168 15.8727 1.91719 15.2512 2.78789 14.6508C3.12266 14.4199 3.70117 14.0562 4.14062 13.7496C3.10303 12.2802 2.54724 10.525 2.55 8.72617C2.55 3.90625 6.45625 0 11.275 0C16.0938 0 20 3.90625 20 8.725C20 13.5437 16.0938 17.45 11.275 17.45C9.47746 17.4529 7.72334 16.8978 6.25469 15.8613C5.94727 16.3004 5.58398 16.877 5.35313 17.2125C4.75117 18.0828 4.12891 18.9844 3.28125 19.7152L3.2332 19.7504C2.96288 19.9157 2.65159 20.0017 2.33476 19.9988C1.85584 19.9974 1.39447 19.8184 1.03984 19.4965L0.515625 18.9734L0.503124 18.9605C-0.0550785 18.3496 -0.162109 17.4281 0.248436 16.7691ZM16.3949 13.8449C17.7528 12.487 18.5157 10.6453 18.5157 8.725C18.5157 6.80466 17.7528 4.96297 16.3949 3.60508C15.037 2.24719 13.1953 1.48434 11.275 1.48434C9.35466 1.48434 7.51297 2.24719 6.15508 3.60508C4.79719 4.96297 4.03434 6.80466 4.03434 8.725C4.03434 10.6453 4.79719 12.487 6.15508 13.8449C7.51297 15.2028 9.35466 15.9657 11.275 15.9657C13.1953 15.9657 15.037 15.2028 16.3949 13.8449Z" fill="#1F62AE"/>
<path d="M11.2752 2.56055C12.4896 2.56055 13.6766 2.92065 14.6863 3.59532C15.696 4.27 16.483 5.22893 16.9477 6.35086C17.4124 7.4728 17.534 8.70733 17.297 9.89836C17.0601 11.0894 16.4753 12.1834 15.6166 13.0421C14.7579 13.9007 13.6638 14.4854 12.4728 14.7223C11.2817 14.9592 10.0472 14.8375 8.92531 14.3728C7.8034 13.908 6.84452 13.121 6.16991 12.1112C5.4953 11.1015 5.13527 9.91436 5.13535 8.7C5.13545 7.07168 5.78237 5.51009 6.93381 4.35873C8.08524 3.20737 9.64687 2.56055 11.2752 2.56055ZM11.2752 12.1562C11.4486 12.1562 11.618 12.1048 11.7622 12.0085C11.9063 11.9122 12.0187 11.7753 12.085 11.6151C12.1514 11.455 12.1687 11.2787 12.1349 11.1087C12.1011 10.9386 12.0176 10.7825 11.895 10.6599C11.7724 10.5373 11.6162 10.4538 11.4462 10.42C11.2762 10.3861 11.0999 10.4035 10.9397 10.4698C10.7796 10.5362 10.6427 10.6485 10.5464 10.7927C10.45 10.9368 10.3986 11.1063 10.3986 11.2797C10.3986 11.3948 10.4212 11.5088 10.4653 11.6152C10.5093 11.7216 10.5738 11.8182 10.6553 11.8996C10.7367 11.981 10.8333 12.0456 10.9397 12.0896C11.0461 12.1337 11.1601 12.1563 11.2752 12.1562ZM10.3541 6.03242C10.3951 7.3332 10.4361 7.79219 10.4768 9.09258C10.4859 9.29823 10.574 9.49243 10.7227 9.63474C10.8714 9.77704 11.0693 9.85647 11.2752 9.85647C11.481 9.85647 11.679 9.77704 11.8277 9.63474C11.9764 9.49243 12.0645 9.29823 12.0736 9.09258C12.1127 7.79219 12.1553 7.33477 12.1963 6.03242C12.2119 5.60547 11.7998 5.24375 11.2752 5.24414C10.7506 5.24453 10.3385 5.60547 10.3541 6.03242Z" fill="#1F62AE"/>
</g>
<defs>
<clipPath id="clip0_2196_14420">
<rect width="20" height="20" fill="white" transform="matrix(-1 0 0 1 20 0)"/>
</clipPath>
</defs>
</svg>
