<svg width="12" height="12" viewBox="0 0 12 12" fill="none" xmlns="http://www.w3.org/2000/svg">
<path d="M5.99732 4.00108C6.06736 3.99859 6.1371 4.0119 6.20193 4.04013C6.26676 4.06836 6.3252 4.11087 6.37339 4.16485C7.52975 5.39327 8.68583 6.62261 9.84163 7.85286C9.89171 7.90407 9.93155 7.96546 9.95876 8.03337C9.98597 8.10128 10 8.17431 10 8.2481C10 8.32189 9.98597 8.39492 9.95876 8.46283C9.93155 8.53074 9.89171 8.59214 9.84163 8.64334C9.63031 8.86201 9.31203 8.85377 9.08519 8.61315C8.10363 7.57625 7.12436 6.53447 6.1474 5.48781C6.02924 5.36064 5.97058 5.35881 5.85155 5.48781C4.88552 6.52624 3.90999 7.55551 2.94051 8.59119C2.77576 8.76777 2.58946 8.84462 2.36606 8.77418C2.28898 8.74915 2.21848 8.70538 2.16017 8.64634C2.10186 8.58729 2.05736 8.51462 2.03022 8.43411C2.00308 8.3536 1.99404 8.26748 2.00383 8.18261C2.01362 8.09773 2.04196 8.01646 2.0866 7.94526C2.11764 7.89789 2.15287 7.85377 2.19183 7.81352L5.59193 4.1987C5.64173 4.13626 5.70385 4.0862 5.7739 4.05205C5.84395 4.0179 5.92023 4.0005 5.99732 4.00108Z" fill="#1F62AE"/>
</svg>
