<svg width="20" height="20" viewBox="0 0 20 20" fill="none" xmlns="http://www.w3.org/2000/svg">
<path d="M13.125 4.375H1.875C1.37818 4.37648 0.902124 4.5745 0.550814 4.92581C0.199504 5.27712 0.00148381 5.75318 0 6.25L0 15.625C0.00106913 16.0126 0.12168 16.3904 0.345382 16.707C0.569085 17.0235 0.884986 17.2633 1.25 17.3938V19.375C1.25063 19.4927 1.28437 19.6079 1.34737 19.7074C1.41036 19.8069 1.50008 19.8866 1.60625 19.9375C1.68932 19.9802 1.78164 20.0016 1.875 20C2.01632 20.0012 2.15353 19.9525 2.2625 19.8625L5.21875 17.5H13.125C13.6218 17.4985 14.0979 17.3005 14.4492 16.9492C14.8005 16.5979 14.9985 16.1218 15 15.625V6.25C14.9985 5.75318 14.8005 5.27712 14.4492 4.92581C14.0979 4.5745 13.6218 4.37648 13.125 4.375ZM7.5 15C7.37639 15 7.25555 14.9633 7.15277 14.8947C7.04999 14.826 6.96988 14.7284 6.92257 14.6142C6.87527 14.5 6.86289 14.3743 6.88701 14.2531C6.91112 14.1318 6.97065 14.0205 7.05806 13.9331C7.14547 13.8456 7.25683 13.7861 7.37807 13.762C7.49931 13.7379 7.62497 13.7503 7.73918 13.7976C7.85338 13.8449 7.95099 13.925 8.01967 14.0278C8.08834 14.1305 8.125 14.2514 8.125 14.375C8.12451 14.5406 8.0585 14.6993 7.9414 14.8164C7.82429 14.9335 7.66561 14.9995 7.5 15ZM8.6625 11.375C8.48914 11.4729 8.34433 11.6143 8.24239 11.7853C8.14044 11.9563 8.0849 12.151 8.08125 12.35V12.4125C8.08125 12.5783 8.0154 12.7372 7.89819 12.8544C7.78098 12.9717 7.62201 13.0375 7.45625 13.0375C7.29049 13.0375 7.13152 12.9717 7.01431 12.8544C6.8971 12.7372 6.83125 12.5783 6.83125 12.4125V12.35C6.83375 11.9315 6.94658 11.521 7.15836 11.16C7.37014 10.7989 7.67339 10.5002 8.0375 10.2937C8.19247 10.2053 8.32501 10.0824 8.42485 9.93453C8.52469 9.78666 8.58915 9.61778 8.61324 9.44099C8.63733 9.26419 8.6204 9.08423 8.56376 8.91503C8.50712 8.74583 8.41229 8.59194 8.28662 8.46528C8.16096 8.33862 8.00782 8.24258 7.83907 8.18461C7.67032 8.12664 7.4905 8.1083 7.31352 8.13099C7.13654 8.15369 6.96716 8.21681 6.8185 8.31549C6.66984 8.41416 6.54589 8.54573 6.45625 8.7C6.41197 8.7749 6.37633 8.85457 6.35 8.9375C6.30027 9.0958 6.1897 9.22786 6.0426 9.30464C5.8955 9.38141 5.72393 9.3966 5.56562 9.34688C5.40732 9.29715 5.27526 9.18657 5.19849 9.03947C5.12172 8.89237 5.10652 8.7208 5.15625 8.5625C5.21247 8.39301 5.28576 8.22967 5.375 8.075C5.63637 7.62787 6.03407 7.2762 6.50982 7.0715C6.98557 6.8668 7.51437 6.81984 8.01875 6.9375C8.45391 7.03877 8.85201 7.25989 9.16793 7.57582C9.48386 7.89174 9.70498 8.28984 9.80625 8.725C9.92551 9.23097 9.87868 9.7619 9.67268 10.2392C9.46669 10.7165 9.11248 11.1147 8.6625 11.375Z" fill="#1F62AE"/>
<path d="M20 1.875V11.25C19.9989 11.6376 19.8783 12.0154 19.6546 12.332C19.4309 12.6485 19.115 12.8883 18.75 13.0188V15C18.7494 15.1177 18.7156 15.2329 18.6526 15.3324C18.5896 15.4319 18.4999 15.5116 18.3938 15.5625C18.3107 15.6052 18.2184 15.6266 18.125 15.625C17.9837 15.6262 17.8465 15.5775 17.7375 15.4875L16.25 14.3V6.25C16.2497 5.4213 15.9203 4.62664 15.3343 4.04066C14.7484 3.45468 13.9537 3.12533 13.125 3.125H5V1.875C5.00148 1.37818 5.1995 0.902124 5.55081 0.550814C5.90212 0.199504 6.37818 0.00148381 6.875 0L18.125 0C18.6218 0.00148381 19.0979 0.199504 19.4492 0.550814C19.8005 0.902124 19.9985 1.37818 20 1.875Z" fill="#1F62AE"/>
</svg>
