<svg width="20" height="20" viewBox="0 0 20 20" fill="none" xmlns="http://www.w3.org/2000/svg">
<g clip-path="url(#clip0_2196_19332)">
<path d="M18.7505 11.6667C18.7505 8.6735 16.3255 6.25 13.3337 6.25C10.3422 6.25 7.91797 8.6735 7.91797 11.6667C7.22797 11.6667 6.66797 12.2265 6.66797 12.9167V17.0833C6.66797 17.7735 7.22797 18.3333 7.91797 18.3333H10.418C10.6475 18.3333 10.8337 18.147 10.8337 17.9167V15C10.8337 14.5417 10.667 13.8313 10.462 13.4213L9.58472 11.6667C9.58472 9.59475 11.262 7.91675 13.334 7.91675C15.4042 7.91675 17.084 9.59475 17.084 11.6667L16.2067 13.4213C16.0017 13.8315 15.834 14.5417 15.834 15V18.0128C15.089 18.4942 14.2207 18.7502 13.3337 18.75H12.5005V20H13.3337C14.9297 20 16.3742 19.3628 17.4352 18.3333H18.7505C19.082 18.3333 19.3999 18.2016 19.6344 17.9671C19.8688 17.7327 20.0005 17.4148 20.0005 17.0833V12.9167C20.0005 12.5852 19.8688 12.2673 19.6344 12.0329C19.3999 11.7984 19.082 11.6667 18.7505 11.6667Z" fill="#1F62AE"/>
<path d="M13.3333 5C13.6165 5 13.8933 5.0235 14.1668 5.05775V1.66675C14.1668 0.75025 13.4163 0 12.5 0H1.66675C0.75 0 0 0.75025 0 1.66675V6.66675C0 7.58325 0.75 8.3335 1.66675 8.3335V10.8335L5.8335 8.3335H7.56975C8.72425 6.34425 10.8723 5 13.3333 5ZM10 3.33325C10.1095 3.33315 10.2179 3.35464 10.319 3.39648C10.4201 3.43832 10.512 3.49969 10.5894 3.57708C10.6668 3.65448 10.7282 3.74637 10.77 3.84751C10.8119 3.94865 10.8334 4.05705 10.8333 4.1665C10.8333 4.3313 10.7844 4.4924 10.6928 4.62943C10.6013 4.76646 10.4711 4.87326 10.3189 4.93632C10.1666 4.99939 9.99908 5.01589 9.83744 4.98374C9.67581 4.95159 9.52734 4.87223 9.4108 4.7557C9.29427 4.63916 9.21491 4.49069 9.18276 4.32906C9.15061 4.16742 9.16711 3.99989 9.23018 3.84763C9.29324 3.69537 9.40005 3.56524 9.53707 3.47368C9.6741 3.38212 9.8352 3.33325 10 3.33325ZM4.16675 5C3.94573 5 3.73375 4.9122 3.57747 4.75591C3.42118 4.59962 3.33338 4.38765 3.33338 4.16663C3.33338 3.9456 3.42118 3.73363 3.57747 3.57734C3.73375 3.42105 3.94573 3.33325 4.16675 3.33325C4.38778 3.33325 4.59975 3.42105 4.75604 3.57734C4.91232 3.73363 5.00013 3.9456 5.00013 4.16663C5.00013 4.38765 4.91232 4.59962 4.75604 4.75591C4.59975 4.9122 4.38778 5 4.16675 5ZM6.25 4.16675C6.25 3.94572 6.3378 3.73375 6.49409 3.57746C6.65038 3.42118 6.86235 3.33337 7.08338 3.33337C7.3044 3.33337 7.51637 3.42118 7.67266 3.57746C7.82895 3.73375 7.91675 3.94572 7.91675 4.16675C7.91675 4.38777 7.82895 4.59975 7.67266 4.75603C7.51637 4.91232 7.3044 5.00012 7.08338 5.00012C6.86235 5.00012 6.65038 4.91232 6.49409 4.75603C6.3378 4.59975 6.25 4.38777 6.25 4.16675Z" fill="#1F62AE"/>
</g>
<defs>
<clipPath id="clip0_2196_19332">
<rect width="20" height="20" fill="white"/>
</clipPath>
</defs>
</svg>
