<svg width="20" height="20" viewBox="0 0 20 20" fill="none" xmlns="http://www.w3.org/2000/svg">
<path d="M4.43266 15.6856C5.49033 15.6856 6.34775 14.8282 6.34775 13.7706C6.34775 12.7129 5.49033 11.8555 4.43266 11.8555C3.37499 11.8555 2.51758 12.7129 2.51758 13.7706C2.51758 14.8282 3.37499 15.6856 4.43266 15.6856Z" fill="#1F62AE"/>
<path d="M15.641 10.8941C15.7469 10.6058 15.8012 10.301 15.8012 9.99385C15.8007 8.55173 14.6313 7.38307 13.1892 7.38352C12.8825 7.38362 12.5783 7.43773 12.2905 7.54335V12.4441C13.6437 12.9413 15.1438 12.2474 15.641 10.8941ZM7.67413 5.04475L5.25341 8.22324C5.19347 8.30139 5.10955 8.35771 5.01453 8.38357L0.964246 9.48972C0.688369 9.56521 0.444777 9.72891 0.270666 9.95582C0.096556 10.1827 0.00149541 10.4604 0 10.7464L0 12.2248C0.00586592 12.944 0.592737 13.5228 1.31196 13.5187H1.63453C1.76816 11.9734 3.12922 10.829 4.67447 10.9627C6.03436 11.0804 7.11279 12.1588 7.23039 13.5187H11.3966V4.30078H9.17525C8.8848 4.30171 8.59844 4.36927 8.3382 4.49825C8.07796 4.62722 7.85078 4.81419 7.67413 5.04475Z" fill="#1F62AE"/>
<path d="M18.8203 9.22153C18.7254 9.21257 18.6358 9.17387 18.5642 9.11094C18.4927 9.04802 18.4428 8.96409 18.4218 8.87114C18.2839 8.23401 18.0286 7.62813 17.6689 7.08449C17.6156 7.00446 17.5895 6.90939 17.5945 6.81338C17.5996 6.71737 17.6354 6.62554 17.6968 6.55153L18.4465 5.64566L17.5346 4.7222L16.6327 5.46935C16.5596 5.53002 16.469 5.56583 16.3742 5.57156C16.2794 5.5773 16.1852 5.55267 16.1053 5.50125C15.5584 5.14335 14.9512 4.8874 14.3131 4.74577C14.2206 4.72622 14.1367 4.67769 14.0737 4.60724C14.0107 4.53678 13.9718 4.44807 13.9626 4.35398L13.8496 3.18359H12.2901V6.60745C14.1605 6.11102 16.0793 7.22482 16.5757 9.09533C17.0722 10.9658 15.9584 12.8845 14.0879 13.381C13.4988 13.5373 12.8791 13.5373 12.29 13.381V16.8149H13.8496L13.9628 15.6393C13.9718 15.5448 14.0107 15.4557 14.0736 15.3847C14.1366 15.3138 14.2205 15.2646 14.3132 15.2444C14.9504 15.1066 15.5564 14.8512 16.1001 14.4915C16.1801 14.4382 16.2752 14.4121 16.3712 14.4172C16.4672 14.4222 16.559 14.458 16.6331 14.5194L17.5371 15.268L18.4645 14.3406L17.7159 13.4366C17.6554 13.3634 17.6198 13.2728 17.6143 13.178C17.6087 13.0832 17.6336 12.9891 17.6851 12.9093C18.0437 12.3625 18.3005 11.7552 18.4429 11.117C18.4634 11.0243 18.5128 10.9404 18.5839 10.8775C18.655 10.8145 18.7442 10.7757 18.8387 10.7666L19.9996 10.6537V9.33471L18.8203 9.22153Z" fill="#1F62AE"/>
</svg>
