<svg width="21" height="21" viewBox="0 0 21 21" fill="none" xmlns="http://www.w3.org/2000/svg">
<path fill-rule="evenodd" clip-rule="evenodd" d="M6.29223 10.6114H1.63219C1.11536 10.6114 0.693848 10.1943 0.693848 9.68278V1.52632C0.693848 1.01482 1.1154 0.597656 1.63219 0.597656H14.8854C15.1612 0.597656 15.3986 0.7023 15.583 0.905272L16.9511 2.41041L13.0895 2.70972C12.6247 2.74573 12.2216 2.96225 11.9378 3.32836L6.29223 10.6114ZM4.01649 3.01891C3.53617 3.01891 3.14685 3.40421 3.14685 3.87957C3.14685 4.35493 3.53617 4.74023 4.01649 4.74023C4.4968 4.74023 4.88612 4.35493 4.88612 3.87957C4.88612 3.40421 4.4968 3.01891 4.01649 3.01891ZM7.03313 2.90679L3.37029 7.95265C3.31845 8.02392 3.29734 8.11266 3.31161 8.19933C3.32588 8.28601 3.37435 8.36352 3.44636 8.41482C3.51838 8.46613 3.60804 8.48702 3.69562 8.4729C3.78319 8.45878 3.86152 8.4108 3.91336 8.33953L7.5762 3.29367C7.60187 3.25838 7.62026 3.21843 7.63033 3.17611C7.64039 3.13378 7.64194 3.08991 7.63487 3.04699C7.6278 3.00408 7.61226 2.96296 7.58914 2.92599C7.56602 2.88902 7.53576 2.85692 7.5001 2.83152C7.46444 2.80611 7.42408 2.78791 7.38132 2.77794C7.33855 2.76798 7.29423 2.76645 7.25086 2.77344C7.2075 2.78043 7.16595 2.7958 7.12859 2.81868C7.09124 2.84156 7.0588 2.8715 7.03313 2.90679ZM6.92685 6.46882C6.44653 6.46882 6.05722 6.85412 6.05722 7.32948C6.05722 7.80485 6.44653 8.19015 6.92685 8.19015C7.40717 8.19015 7.79648 7.80485 7.79648 7.32948C7.79653 6.85417 7.40717 6.46882 6.92685 6.46882ZM20.4986 9.82809C20.6665 9.61154 20.7271 9.36137 20.6766 9.09305L19.862 4.75731C19.7574 4.2009 19.58 3.71715 19.1263 3.37264C18.6725 3.02814 18.1545 2.98377 17.5843 3.02797L13.1419 3.37231C12.867 3.39362 12.6386 3.51633 12.4707 3.73289L4.4037 14.1397C4.08915 14.5455 4.16697 15.1304 4.57702 15.4418L11.116 20.4065C11.526 20.7178 12.1171 20.6407 12.4316 20.2349L20.4986 9.82809ZM16.5996 5.21402C16.3063 5.5923 16.3785 6.13421 16.7607 6.42442C17.1429 6.71463 17.6905 6.64322 17.9837 6.26494C18.277 5.88666 18.2048 5.34475 17.8226 5.05454C17.4403 4.76433 16.8928 4.83574 16.5996 5.21402ZM16.9653 8.5607L16.078 9.70571L13.4441 7.70656C13.3734 7.65372 13.2845 7.63072 13.1967 7.64259C13.109 7.65446 13.0296 7.70023 12.9758 7.76989C12.9221 7.83956 12.8984 7.92745 12.9099 8.01435C12.9215 8.10125 12.9673 8.18009 13.0374 8.23364L15.9366 10.4341C16.0072 10.4875 16.0963 10.5109 16.1844 10.4992C16.2725 10.4875 16.3523 10.4417 16.4062 10.3718L17.4978 8.96315C17.5506 8.89318 17.5733 8.80545 17.5611 8.71899C17.5489 8.63253 17.5027 8.55432 17.4326 8.50134C17.3625 8.44836 17.2741 8.42488 17.1866 8.43599C17.0991 8.4471 17.0196 8.49191 16.9653 8.5607ZM14.3457 12.7097L13.8225 11.9627L14.5193 11.0635L15.3839 11.3699C15.4675 11.3985 15.5592 11.3934 15.6389 11.3555C15.7187 11.3176 15.7801 11.2501 15.8099 11.1676C15.8396 11.0852 15.8352 10.9944 15.7977 10.9151C15.7602 10.8358 15.6926 10.7744 15.6095 10.7442L11.9971 9.46406L11.9968 9.46489C11.9301 9.44134 11.8576 9.43933 11.7897 9.45915C11.7217 9.47897 11.6619 9.5196 11.6188 9.5752C11.5757 9.6308 11.5515 9.6985 11.5497 9.76857C11.5479 9.83864 11.5686 9.90746 11.6088 9.96514L13.7948 13.0861C13.8197 13.1219 13.8516 13.1525 13.8885 13.1761C13.9254 13.1997 13.9667 13.2159 14.0099 13.2237C14.0532 13.2315 14.0976 13.2309 14.1405 13.2217C14.1835 13.2126 14.2243 13.1952 14.2604 13.1705C14.2966 13.1457 14.3275 13.1142 14.3514 13.0777C14.3753 13.0412 14.3916 13.0003 14.3995 12.9576C14.4075 12.9148 14.4068 12.8708 14.3975 12.8283C14.3883 12.7858 14.3707 12.7455 14.3457 12.7097ZM12.7548 10.4383L13.4217 11.3904L13.8569 10.8288L12.7548 10.4383ZM13.1583 13.4733C13.2128 13.405 13.2923 13.3607 13.3795 13.3499C13.4667 13.339 13.5547 13.3625 13.6246 13.4153C13.6945 13.4681 13.7406 13.546 13.753 13.6321C13.7654 13.7182 13.7431 13.8057 13.6909 13.8757L12.5993 15.2844C12.5453 15.3543 12.4656 15.4001 12.3775 15.4118C12.2894 15.4235 12.2003 15.4001 12.1297 15.3467L9.23051 13.1462C9.1599 13.0929 9.1136 13.0139 9.10179 12.9268C9.08998 12.8396 9.11364 12.7514 9.16755 12.6815L10.2592 11.2728C10.3137 11.2045 10.3931 11.1602 10.4803 11.1494C10.5675 11.1385 10.6556 11.162 10.7254 11.2148C10.7953 11.2676 10.8414 11.3455 10.8538 11.4316C10.8662 11.5177 10.8439 11.6052 10.7918 11.6752L9.90358 12.8214L10.8215 13.5181L11.3903 12.784C11.4448 12.7157 11.5242 12.6714 11.6115 12.6606C11.6987 12.6497 11.7867 12.6732 11.8566 12.726C11.9264 12.7788 11.9726 12.8567 11.985 12.9428C11.9974 13.0289 11.9751 13.1164 11.9229 13.1864L11.3532 13.9216L12.2711 14.6183L13.1583 13.4733ZM7.35252 15.0237L7.89836 14.3193C8.10483 14.0529 8.40256 13.8942 8.7159 13.8534C9.02861 13.8125 9.35698 13.8891 9.62545 14.0928L11.1012 15.213C11.3705 15.4174 11.5308 15.712 11.5721 16.0221C11.6133 16.3316 11.536 16.6566 11.3301 16.9223L10.7842 17.6266C10.7303 17.6965 10.6505 17.7423 10.5625 17.754C10.4744 17.7657 10.3853 17.7423 10.3146 17.6889L7.41548 15.4884C7.34486 15.4351 7.29855 15.3561 7.28674 15.269C7.27493 15.1818 7.29859 15.0936 7.35252 15.0237ZM8.43089 14.7218C8.52458 14.6009 8.65991 14.5288 8.80245 14.5103C8.94554 14.4916 9.0959 14.5266 9.2188 14.6199L10.6946 15.7401C10.8168 15.8328 10.8896 15.9667 10.9083 16.1078C10.9182 16.1803 10.9135 16.2541 10.8944 16.3248C10.8754 16.3955 10.8425 16.4618 10.7975 16.5199L10.456 16.9605L8.08854 15.1636L8.43089 14.7218Z" fill="#1F62AE"/>
</svg>
