<svg width="20" height="20" viewBox="0 0 20 20" fill="none" xmlns="http://www.w3.org/2000/svg">
<g clip-path="url(#clip0_2196_9087)">
<path d="M4.05897 8.88166H0.588379C0.647202 10.4993 1.17661 12.0287 2.1472 13.3228C2.82367 12.9111 3.58838 12.5875 4.47073 12.3228C4.23544 11.2346 4.08838 10.0581 4.05897 8.88166ZM4.52956 4.88166C3.61779 4.61696 2.82367 4.29343 2.1472 3.85225C1.17661 5.17578 0.647202 6.67578 0.588379 8.29343H4.05897C4.11779 7.08755 4.26485 5.94049 4.52956 4.88166ZM4.6472 8.88166C4.6472 10.0287 4.79426 11.1464 5.02956 12.1758C5.20603 12.1464 5.3825 12.0875 5.52956 12.0581C5.20603 11.0287 5.23544 9.91108 5.55897 8.88166H4.6472ZM2.50014 13.764C4.00014 15.6464 6.44132 16.2346 6.47073 16.2346C5.70603 15.4993 5.05897 14.3523 4.61779 12.8523C3.82367 13.117 3.11779 13.4111 2.50014 13.764ZM6.67661 0.881664C5.23544 1.17578 3.47073 2.26402 2.52956 3.41108C3.1472 3.76402 3.8825 4.08755 4.70603 4.32284C5.1472 2.79343 5.85309 1.58755 6.67661 0.881664ZM8.29426 4.82284V0.675781C7.05897 0.852252 5.94132 2.26402 5.26485 4.4699C6.20603 4.67578 7.23544 4.82284 8.29426 4.82284ZM8.29426 5.76402V5.41108C7.17661 5.41108 6.11779 5.26402 5.08838 5.02872C4.82367 6.02872 4.67661 7.14637 4.6472 8.29343H5.82367C6.32367 7.20519 7.17661 6.29343 8.29426 5.76402ZM5.76485 12.5875C5.58838 12.617 5.3825 12.6758 5.20603 12.7052C5.8825 14.9405 7.02956 16.3817 8.29426 16.4993V15.264C7.17661 14.7346 6.26485 13.7934 5.76485 12.5875ZM8.8825 16.4699C9.29426 16.3817 9.70603 16.1464 10.059 15.764C9.6472 15.7346 9.26485 15.6464 8.8825 15.4993V16.4699ZM8.8825 0.675781V4.82284C9.91191 4.79343 10.8825 4.67578 11.7943 4.44049C11.2943 2.70519 10.3825 0.911075 8.8825 0.675781ZM8.8825 5.41108V5.52872C9.02956 5.4699 9.20603 5.44049 9.35308 5.38166C9.20603 5.41107 9.02956 5.41108 8.8825 5.41108ZM12.059 5.44049C12.0296 5.29343 12.0001 5.17578 11.9707 5.02872C11.559 5.11696 11.1766 5.20519 10.7943 5.26402C11.2354 5.26402 11.6472 5.32284 12.059 5.44049ZM10.3531 16.2934C11.0884 16.117 11.8237 15.8228 12.5001 15.4405C11.9413 15.6464 11.3237 15.764 10.8531 15.7934C10.6766 15.9699 10.5296 16.1464 10.3531 16.2934ZM14.5001 3.41108C13.706 2.38166 12.206 1.38166 10.5884 0.940487C11.4413 1.76402 12.0296 3.02872 12.3825 4.29343C13.1766 4.05813 13.9119 3.76402 14.5001 3.41108ZM16.4413 8.88166H15.6178C15.9707 9.88166 15.9707 10.9699 15.6766 11.9699C16.1472 10.9993 16.4119 9.94049 16.4413 8.88166ZM12.706 5.67578C13.9119 6.20519 14.8531 7.14637 15.3825 8.29343H16.4413C16.3825 6.7346 15.8531 5.20519 14.8825 3.88166C14.1472 4.32284 13.3237 4.64637 12.5296 4.88166L12.706 5.67578Z" fill="#1F62AE"/>
<path d="M19 16.9988L16.2058 14.2047C16.0882 14.0871 15.9117 14.0871 15.7941 14.2047L15.7058 14.2636L14.5588 13.1165L14.5 13.0577C16.5588 9.94003 14.2941 5.79297 10.6176 5.79297C7.20584 5.79297 5.02937 9.20473 6.26467 12.2636C7.44114 15.0577 10.7647 15.9694 13.1764 14.4106L14.3823 15.6165L14.3235 15.7047C14.2058 15.8224 14.2058 15.9988 14.3235 16.1165L17.1176 18.9106C17.647 19.44 18.5 19.44 19.0294 18.9106C19.5294 18.4106 19.5294 17.5283 19 16.9988ZM13.5 13.4106C11.4706 15.4694 7.94114 14.793 6.82349 12.0577C5.73526 9.41062 7.64702 6.41062 10.647 6.41062C14.2941 6.41062 16.0882 10.94 13.5 13.4106Z" fill="#1F62AE"/>
</g>
<defs>
<clipPath id="clip0_2196_9087">
<rect width="20" height="20" fill="white"/>
</clipPath>
</defs>
</svg>
