<svg width="20" height="20" viewBox="0 0 20 20" fill="none" xmlns="http://www.w3.org/2000/svg">
<g clip-path="url(#clip0_2196_9186)">
<path d="M12.4121 0.0390625C8.22809 0.0390625 4.82415 3.443 4.82415 7.62697C4.82415 9.50931 5.51341 11.2336 6.65241 12.5612L5.57933 13.6342C5.34651 13.5228 5.08989 13.4638 4.82419 13.4638C4.35795 13.4638 3.9194 13.6449 3.58892 13.9739L0.512008 16.973C-0.170669 17.6557 -0.170669 18.7665 0.512008 19.4492C0.842763 19.78 1.28247 19.9621 1.75008 19.9621C2.21629 19.9621 2.65479 19.781 2.98524 19.4521L6.06227 16.4529C6.60027 15.9149 6.71397 15.1112 6.404 14.4605L7.47786 13.3866C8.80551 14.5256 10.5297 15.2149 12.4121 15.2149C16.596 15.2149 20 11.8109 20 7.62697C20 3.443 16.596 0.0390625 12.4121 0.0390625ZM16.4979 5.87591C16.4979 6.19826 16.2365 6.4596 15.9142 6.4596C15.5918 6.4596 15.3305 6.19826 15.3305 5.87591V5.29223H12.9957V11.1291H13.5794C13.9018 11.1291 14.1631 11.3904 14.1631 11.7128C14.1631 12.0351 13.9018 12.2964 13.5794 12.2964H11.2447C10.9223 12.2964 10.661 12.0351 10.661 11.7128C10.661 11.3904 10.9223 11.1291 11.2447 11.1291H11.8284V5.29223H9.49363V5.87591C9.49363 6.19826 9.2323 6.4596 8.90995 6.4596C8.5876 6.4596 8.32626 6.19826 8.32626 5.87591V4.70854C8.32626 4.38619 8.5876 4.12486 8.90995 4.12486H15.9142C16.2365 4.12486 16.4979 4.38619 16.4979 4.70854V5.87591Z" fill="#1F62AE"/>
</g>
<defs>
<clipPath id="clip0_2196_9186">
<rect width="20" height="20" fill="white"/>
</clipPath>
</defs>
</svg>
