<svg width="20" height="20" viewBox="0 0 20 20" fill="none" xmlns="http://www.w3.org/2000/svg">
<g clip-path="url(#clip0_2196_9177)">
<path fill-rule="evenodd" clip-rule="evenodd" d="M13.2465 0C9.52256 0 6.49295 3.02965 6.49295 6.75351C6.49295 8.39062 7.07866 9.89344 8.05128 11.0637L6.91495 12.2001L5.7992 11.0849L0.643423 16.2395C-0.214702 17.0991 -0.214507 18.4968 0.644204 19.3555C1.07397 19.7845 1.63815 19.999 2.20225 19.999C2.76647 19.999 3.33065 19.7843 3.75983 19.3551L8.91534 14.1996L7.79901 13.0837L8.93506 11.9477C10.1056 12.9209 11.6088 13.5071 13.2465 13.5071C16.9704 13.5071 20 10.4774 20 6.75355C20 3.02961 16.9704 0 13.2465 0ZM8.51012 7.10241C8.28181 7.24189 8.28807 7.57555 8.52144 7.70638L13.2427 10.3531C13.349 10.4127 13.4787 10.4127 13.585 10.3531L18.3059 7.70665C18.5393 7.57583 18.5456 7.24218 18.3173 7.10269L13.5963 4.21804C13.4843 4.14959 13.3434 4.14959 13.2313 4.21803L8.51012 7.10241Z" fill="#1F62AE"/>
</g>
<defs>
<clipPath id="clip0_2196_9177">
<rect width="20" height="20" fill="white"/>
</clipPath>
</defs>
</svg>
