<svg width="22" height="22" viewBox="0 0 22 22" fill="none" xmlns="http://www.w3.org/2000/svg">
<circle cx="11" cy="11" r="10.5" fill="#D9D9D9" fill-opacity="0.2" stroke="#5CB8FF"/>
<path fill-rule="evenodd" clip-rule="evenodd" d="M11.5671 6.56435C11.5671 5.32392 12.5773 4.31836 13.8233 4.31836C15.0694 4.31836 16.0795 5.32392 16.0795 6.56435C16.0795 7.80477 15.0694 8.81034 13.8233 8.81034C13.1941 8.81034 12.6255 8.55382 12.2167 8.14113L9.09342 10.2676C9.12226 10.4112 9.13742 10.5594 9.13742 10.7108C9.13742 11.0106 9.07812 11.2973 8.97071 11.5592L12.3954 13.8093C12.7841 13.4928 13.2815 13.3023 13.8233 13.3023C15.0694 13.3023 16.0795 14.3079 16.0795 15.5483C16.0795 16.7887 15.0694 17.7943 13.8233 17.7943C12.5773 17.7943 11.5671 16.7887 11.5671 15.5483C11.5671 15.2234 11.6367 14.9142 11.7617 14.6349L8.36462 12.403C7.96835 12.7474 7.44929 12.9568 6.8812 12.9568C5.63514 12.9568 4.625 11.9512 4.625 10.7108C4.625 9.47036 5.63514 8.4648 6.8812 8.4648C7.59772 8.4648 8.23556 8.79726 8.64854 9.31468L11.6755 7.2537C11.6051 7.03618 11.5671 6.8044 11.5671 6.56435Z" fill="#5CB8FF"/>
</svg>
