<svg width="65" height="29" viewBox="0 0 65 29" fill="none" xmlns="http://www.w3.org/2000/svg">
<path d="M33.9523 0H24.6649C23.6242 0 22.7773 0.625408 22.7773 1.39407V4.42833C22.7773 4.51861 22.79 4.60648 22.8122 4.69204H26.3565C27.5229 4.69204 28.5742 5.06142 29.3087 5.6496C30.0432 5.06142 31.0945 4.69204 32.2607 4.69204H35.8051C35.8274 4.60648 35.8399 4.51861 35.8399 4.42833V1.39407C35.8399 0.625408 34.9931 0 33.9523 0Z" fill="#363636"/>
<path d="M49.1436 0H39.8565C38.8156 0 37.9688 0.625408 37.9688 1.39407V4.42833C37.9688 4.51861 37.9814 4.60648 38.0036 4.69204H41.5479C42.7142 4.69204 43.7655 5.06142 44.4999 5.6496C45.2343 5.06142 46.2856 4.69204 47.452 4.69204H50.9963C51.0187 4.60648 51.0312 4.51861 51.0312 4.42833V1.39407C51.0312 0.625408 50.1844 0 49.1436 0Z" fill="#363636"/>
<path d="M26.3566 6.48187H17.0692C16.0284 6.48187 15.1816 7.32868 15.1816 8.36945V11.4445H28.2442V8.36945C28.2442 7.32868 27.3974 6.48187 26.3566 6.48187Z" fill="#363636"/>
<path d="M41.548 6.48187H32.2606C31.2199 6.48187 30.373 7.32868 30.373 8.36945V11.4445H43.4356V8.36945C43.4358 7.32868 42.5888 6.48187 41.548 6.48187Z" fill="#363636"/>
<path d="M56.7395 6.48187H47.4523C46.4114 6.48187 45.5645 7.32868 45.5645 8.36945V11.4445H58.627V8.36945C58.627 7.32868 57.7802 6.48187 56.7395 6.48187Z" fill="#363636"/>
<path d="M3.06641 24.0897V27.4674C3.06641 28.0376 3.52868 28.5 4.09903 28.5H54.4483C55.0082 28.5 55.4662 28.0536 55.4805 27.4939L55.5301 25.5621L56.7285 24.0898H3.06641V24.0897Z" fill="#363636"/>
<path d="M63.4881 13.5734H9.24939V11.4445V10.4126C9.24939 9.23694 8.29626 8.28394 7.12071 8.28394C5.94503 8.28394 4.99203 9.23706 4.99203 10.4126V11.4445V13.5732H1.3578C0.139873 13.8713 -0.447652 15.3821 0.397777 16.4362L3.06721 19.7644V21.9606H58.4619L63.9605 15.2045C64.4354 14.6209 64.1394 13.7878 63.4881 13.5734Z" fill="#363636"/>
</svg>
