<svg width="40" height="31" viewBox="0 0 40 31" fill="none" xmlns="http://www.w3.org/2000/svg">
<path d="M2.60465 20.908L2.46992 26.2682C2.46992 26.2682 2.52766 27.2065 3.40821 27.4519H7.35865C7.45008 27.4519 7.53669 27.4279 7.61368 27.3749C7.78209 27.2547 8.08041 26.9996 8.22958 26.5906C8.24882 26.5281 8.25845 26.4655 8.25845 26.3982L8.39318 21.9088H17.1121C17.1121 21.9088 11.7037 17.0538 15.529 9.66773H6.59359C6.59359 9.66773 8.15259 3.47021 10.5248 2.75807C10.5248 2.75807 21.3175 1.70911 27.823 2.75807C27.823 2.75807 29.1558 2.70033 30.763 6.81918C30.787 6.88655 30.8303 6.94429 30.8833 6.9924C31.5569 7.57944 36.3302 12.064 33.4912 18.7812L33.3998 19.0603C33.3998 19.0603 34.8963 19.5174 35.9693 20.4557C36.0607 20.5375 36.1954 20.5326 36.2772 20.4364C36.4553 20.2199 36.7247 19.8109 36.7247 19.3008C36.7247 19.3008 37.2251 15.8268 35.618 11.6069C35.5603 11.4529 35.6469 11.2845 35.8057 11.2508L37.6534 10.8562C37.6534 10.8562 38.4569 10.5964 38.4666 10.043C38.4666 10.043 38.7264 8.26752 37.6341 7.82484C37.5812 7.80559 37.5235 7.79597 37.4705 7.79597L33.7174 7.87295C33.7174 7.87295 31.9563 1.4156 28.1742 0.506176C28.1742 0.506176 19.0945 -0.56203 10.8664 0.40513C10.8664 0.40513 7.23836 0.222284 4.92872 7.66605C4.87579 7.83927 4.71219 7.95957 4.52935 7.95475L1.18038 7.8104C1.18038 7.8104 -0.239089 7.89701 0.0351799 10.019C0.0592386 10.197 0.165096 10.3558 0.31426 10.4472C0.627023 10.6397 1.19962 10.8514 2.73938 11.3085L2.89817 11.3518C2.89336 11.347 -0.0273726 18.5839 2.60465 20.908Z" fill="#1F62AE"/>
<path d="M39.6446 29.6557C40.222 28.727 40.0776 27.5241 39.3318 26.7302L34.6404 21.7163C34.6404 21.7163 33.6347 20.7684 32.5569 20.9705L31.0508 19.527C32.1431 17.9728 32.7205 16.0288 32.5136 13.9406C32.1334 10.1681 29.1309 7.07901 25.3681 6.61227C19.9934 5.94825 15.4752 10.4665 16.144 15.846C16.6108 19.5992 19.6903 22.5969 23.4531 22.9818C25.5317 23.1935 27.4709 22.6306 29.0202 21.5479L30.4734 22.8904C30.4734 22.8904 30.151 24.3147 31.4213 25.2433L36.1464 29.7616C36.796 30.3823 37.7295 30.6662 38.5908 30.4111C38.9709 30.2957 39.3366 30.0888 39.6013 29.7183C39.6013 29.7231 39.6205 29.699 39.6446 29.6557ZM24.2759 20.2054C21.2541 20.2054 18.8049 17.7563 18.8049 14.7345C18.8049 11.7127 21.2541 9.26354 24.2759 9.26354C27.2976 9.26354 29.7468 11.7127 29.7468 14.7345C29.7468 17.7563 27.2976 20.2054 24.2759 20.2054Z" fill="#1F62AE"/>
</svg>
