<svg width="65" height="28" viewBox="0 0 65 28" fill="none" xmlns="http://www.w3.org/2000/svg">
<path d="M43.3218 10.9392C42.4044 10.9392 41.5963 11.4253 41.1406 12.1483C42.1188 11.7716 43.2064 11.4435 44.4033 11.1822C44.0752 11.0303 43.7107 10.9392 43.3218 10.9392Z" fill="#363636"/>
<path d="M4.7168 13.5396C4.72895 15.7877 6.55776 17.5983 8.8058 17.5861C11.0538 17.5739 12.8644 15.7451 12.8523 13.4971C12.8401 11.2491 11.0113 9.43847 8.76327 9.45062C6.52131 9.47493 4.7168 11.2977 4.7168 13.5396Z" stroke="#363636"/>
<path d="M8.81854 16.1036C10.2447 16.1036 11.4007 14.9475 11.4007 13.5214C11.4007 12.0953 10.2447 10.9392 8.81854 10.9392C7.39242 10.9392 6.23633 12.0953 6.23633 13.5214C6.23633 14.9475 7.39242 16.1036 8.81854 16.1036Z" fill="#363636"/>
<path d="M48.6875 13.4728C48.6875 13.4971 48.6936 13.5275 48.6936 13.5518V14.3295C48.6268 15.5446 48.8212 15.4596 49.7629 15.3441C50.4981 15.2712 51.3123 15.2287 51.9745 15.1072C52.3998 15.0768 52.813 14.9431 53.1836 14.7244C53.4449 14.4692 53.5664 13.9892 53.6271 13.4546C52.5517 13.327 50.8444 13.2237 48.6875 13.4728Z" fill="#363636"/>
<path d="M56.4082 13.1872V26.4203C56.4082 26.4203 57.6051 24.8041 60.1387 25.0229C60.9772 25.0958 63.207 25.3996 64.5558 25.6426V12.4278C61.3114 14.0014 56.4082 13.1872 56.4082 13.1872Z" fill="#363636"/>
<path d="M23.6191 17.5497C24.7127 18.3456 31.4812 19.5486 34.9565 20.4235C37.4962 21.0615 44.8722 20.1744 47.1506 18.376C48.6513 17.1912 48.8761 15.5386 49.8908 13.9164C51.1363 14.4449 52.5641 14.5361 53.7854 13.971C54.5874 14.1351 55.3955 14.287 56.2339 14.3234C56.7625 14.3417 57.2789 14.2687 57.765 14.1169V23.832C58.1356 27.0947 52.6735 28 49.2589 28C49.2589 28 38.1038 28 32.4897 25.4057C27.0884 21.6448 21.9725 20.3749 22.1305 18.2848C22.173 17.7988 23.1938 17.2398 23.6191 17.5497Z" fill="#363636"/>
<path d="M53.3057 11.6379C52.449 11.5893 51.4283 11.5529 50.3164 11.5407C50.0248 11.5468 47.4183 11.7351 46.4036 11.9356C45.6806 12.0815 44.1495 12.6222 43.1409 12.9685C42.1384 13.3148 41.2149 13.6551 40.4311 13.9467C38.8575 14.5421 37.8125 14.9432 37.8125 14.9432C36.9376 15.2773 36.494 16.2555 36.8282 17.1304C37.1138 17.8838 37.8854 18.3152 38.657 18.2059L38.6935 18.1998C38.6935 18.1998 39.775 18.0418 41.4033 17.8109C42.2174 17.7016 43.1713 17.574 44.1799 17.4585C45.1824 17.3431 46.27 17.2337 47.2603 17.1912L47.8922 17.1973L48.0988 17.2033H48.1535H48.1778H48.1899C48.2081 17.2033 48.0198 17.2155 48.1049 17.2094H48.1109L48.1838 17.2216L48.4755 17.2641L48.761 17.3006L49.1074 17.3613C49.3382 17.4038 49.5691 17.4403 49.7939 17.4768C50.7418 17.6651 51.6349 17.8595 52.4126 18.0418C53.1903 18.2362 53.8343 18.3942 54.2839 18.5036C54.7335 18.619 54.9948 18.6919 54.9948 18.6919H55.007C56.8722 19.184 58.78 18.0722 59.2722 16.2008C59.7643 14.3356 55.8636 11.6379 53.3057 11.6379Z" fill="#363636"/>
<path d="M37.5376 15.496C37.0515 15.7694 36.8693 16.4864 36.9847 16.9603C37.0455 17.2215 37.3371 17.8595 38.2971 17.817C39.257 17.7744 39.257 17.7015 39.257 17.7015L38.2788 15.2044C38.2788 15.2044 37.7199 15.3927 37.5376 15.496Z" fill="#363636"/>
<path d="M52.8242 7.1479C52.6905 6.49779 52.1923 5.9935 51.5422 5.85376C49.2456 5.14897 45.8492 4.68113 44.7799 4.37126C44.2148 4.21937 43.6801 3.95811 43.2184 3.59356C41.7541 2.66397 40.2291 1.82551 38.6615 1.08426C37.7016 0.464532 36.6019 0.0939095 35.4596 0.0149243C31.8506 0.0149243 27.5489 -0.179502 24.3105 0.835155C21.0721 1.84981 18.1254 3.72723 15.0814 5.17934C11.1868 5.5925 7.32871 6.27298 3.52526 7.20865C2.58959 7.34232 1.78151 7.9499 1.38658 8.81267C1.08887 9.46278 0.827611 10.1311 0.608883 10.8116C0.299018 10.842 0.299018 10.927 0.213957 11.0789C0.0620623 11.4131 -0.0108474 11.7716 0.00130417 12.1361C0.00130417 12.5614 0.0742141 12.9989 0.0742141 13.4303C0.00738047 14.0318 0.226109 14.6333 0.669641 15.0403C0.936976 15.2105 1.24077 15.3198 1.55671 15.3502H2.62604C3.75614 15.2105 3.67108 15.3927 3.59817 14.1411V13.5882C3.58602 13.4303 3.58602 13.2723 3.59817 13.1204V13.0596C3.69538 10.8298 5.18395 8.85519 7.34086 8.27192C11.041 7.26941 14.2673 10.119 14.0971 13.5882C14.1214 14.0561 14.1032 14.53 14.0303 14.9978C13.7873 16.1279 13.6901 15.897 14.8505 15.9821H21.7587C22.2569 15.7877 22.9617 15.6783 23.8305 15.9821H34.9492C35.01 15.9821 35.0647 15.9517 35.1011 15.9031C36.1948 14.4753 37.7198 13.7523 38.0904 13.5882C38.139 13.5639 38.1755 13.5153 38.1755 13.4606C38.2241 10.605 40.5572 8.3023 43.431 8.3023C45.1991 8.3023 46.7606 9.17721 47.7145 10.52C47.7874 10.6232 47.9028 10.684 48.0304 10.6719C49.4886 10.5686 51.0744 10.5625 52.7938 10.6962C52.9579 10.7083 53.1037 10.5686 53.0915 10.4045C53.0308 9.31695 52.9579 8.30837 52.8242 7.1479ZM31.1822 5.37377C31.0668 5.95097 30.9453 6.10894 30.362 6.10894L20.6651 6.50387H20.6408H20.659C20.5071 6.49779 18.8119 4.89986 18.8119 4.89986C20.6833 3.71508 22.6458 2.67612 24.6872 1.80121C26.0118 1.46704 27.3606 1.27261 28.7216 1.21186L31.5286 1.09641C31.7959 1.09641 31.7959 1.21185 31.7959 1.49134C31.6379 2.43916 31.4131 4.15861 31.1822 5.37377ZM38.4307 5.8416L33.4546 6.06641C32.6404 6.06641 32.5979 6.15147 32.6769 5.40415C32.9564 3.09535 33.1022 2.20221 33.1873 1.57033C33.2176 1.30299 33.2966 1.14502 33.649 1.14502H34.4692C35.0465 1.14502 37.8109 2.97991 38.941 4.15861C39.5972 4.77227 39.8281 5.75654 38.4307 5.8416Z" fill="#363636"/>
<path d="M38.1882 13.5761C38.1882 13.57 38.1882 13.5579 38.1882 13.5518L38.1699 13.5882C38.1699 13.5822 38.176 13.5822 38.1882 13.5761Z" fill="white"/>
<path d="M38.8868 13.1994L39.6948 12.8348C39.6948 12.8348 40.0594 10.1797 42.9332 9.84553C42.9332 9.84553 44.7317 9.62073 45.8739 10.842L46.7914 10.7083C46.7914 10.7083 45.5762 8.90379 42.9089 9.07998C42.9089 9.07998 40.8006 9.14682 39.5855 11.085C39.5794 11.0789 38.8807 12.2212 38.8868 13.1994Z" fill="#363636"/>
<path d="M3.82923 7.53068L5.88893 7.37878C5.48185 7.63397 4.85604 8.04104 4.26062 8.48458C3.74417 8.86735 3.15482 9.04355 2.6323 9.19544C2.35282 9.2805 2.09763 9.35341 1.87891 9.45063C1.93359 9.22582 2.01865 9.03747 2.13409 8.89773C2.49864 8.43597 2.84496 7.85877 3.59835 7.56106L3.82923 7.53068Z" fill="white"/>
</svg>
