<svg width="20" height="20" viewBox="0 0 20 20" fill="none" xmlns="http://www.w3.org/2000/svg">
<path fill-rule="evenodd" clip-rule="evenodd" d="M10.1902 0.292969H10.1126C8.04831 0.292969 6.06859 1.11299 4.60894 2.57265C3.14928 4.03231 2.32926 6.01202 2.32926 8.07629V8.11031H10.1902V0.292969ZM6.61978 9.33203C4.38832 9.33203 2.57289 11.1545 2.57289 13.3945C2.57289 14.4023 2.94049 15.3255 3.54796 16.0363L2.97565 16.6108C2.85148 16.5511 2.71461 16.5195 2.57291 16.5195C2.32424 16.5195 2.09035 16.6165 1.9141 16.7927L0.273072 18.3983C-0.0910239 18.7638 -0.0910239 19.3586 0.273072 19.7241C0.449475 19.9012 0.683987 19.9987 0.933379 19.9987C1.18202 19.9987 1.41589 19.9017 1.59213 19.7256L3.23322 18.1199C3.52015 17.8319 3.58079 17.4015 3.41547 17.0532L3.9882 16.4782C4.69628 17.088 5.61586 17.457 6.61978 17.457C8.85123 17.457 10.6667 15.6346 10.6667 13.3945C10.6667 11.1545 8.85123 9.33203 6.61978 9.33203ZM19.668 8.07629V8.11031H11.807V0.292969H11.8847C13.9489 0.292979 15.9287 1.11301 17.3883 2.57266C18.8479 4.03232 19.668 6.01203 19.668 8.07629ZM19.6681 9.85547H11.8071V17.6728H11.8847C12.9069 17.6728 13.919 17.4715 14.8633 17.0803C15.8076 16.6892 16.6656 16.1159 17.3884 15.3931C18.1111 14.6704 18.6844 13.8124 19.0756 12.868C19.4667 11.9237 19.6681 10.9116 19.6681 9.88949V9.85547Z" fill="#1F62AE"/>
</svg>
